<svg id="Layer_1" data-name="Layer 1" xmlns="http://www.w3.org/2000/svg" viewBox="0 0 430.12 125.56"><title>kent_state_university Horizontal_124-White</title><path d="M82.1,137.46c0-12,0-14.18-.15-16.65-0.15-2.62-.77-3.85-3.31-4.39a14.39,14.39,0,0,0-2.62-.23,0.54,0.54,0,0,1-.62-0.46c0-.46.39-0.62,1.23-0.62,3.47,0,8,.23,8.48.23,0.69,0,5.16-.23,7.48-0.23,0.85,0,1.23.15,1.23,0.62a0.54,0.54,0,0,1-.62.46,11.43,11.43,0,0,0-1.93.23c-2.08.39-2.7,1.7-2.85,4.39-0.15,2.47-.15,4.62-0.15,16.65v4.62h0.31c1.31-1.47,15.26-15.65,18-18.65,2.16-2.24,4.16-4.24,4.16-5.55a1.51,1.51,0,0,0-1-1.62,0.83,0.83,0,0,1-.69-0.62c0-.39.39-0.54,0.93-0.54,1.54,0,3.93.23,5.78,0.23,0.39,0,5.47-.23,7.4-0.23,0.85,0,1.16.15,1.16,0.54s-0.15.54-.77,0.54a11.41,11.41,0,0,0-4.32,1.08c-3.16,1.39-4.86,3.31-8.32,6.63-1.93,1.85-15.34,15-17,16.88,2,2.24,18,18.81,21.2,21.74,6.48,6,7.79,7.25,11.49,8.79a14.22,14.22,0,0,0,4.78,1c0.54,0,1,.15,1,0.46s-0.39.62-1.7,0.62h-3.93c-2.16,0-3.62,0-5.32-.15-4.09-.39-6-2.08-9.33-4.7-3.47-2.85-19.81-20.5-23.51-25.05H88.27V151c0,7.4,0,13.49.39,16.73,0.23,2.24.69,3.93,3,4.24a26.56,26.56,0,0,0,3,.31,0.5,0.5,0,0,1,.62.46c0,0.39-.39.62-1.23,0.62-3.78,0-8.25-.23-8.86-0.23s-5.09.23-7.4,0.23c-0.85,0-1.23-.15-1.23-0.62a0.5,0.5,0,0,1,.62-0.46,11.93,11.93,0,0,0,2.31-.31c1.54-.31,1.93-2,2.24-4.24,0.39-3.24.39-9.33,0.39-16.73V137.46Z" transform="translate(-75.4 -78.81)" style="fill:#fff"/><path d="M133.9,137.46c0-12,0-14.18-.15-16.65-0.15-2.62-.77-3.85-3.31-4.39a14.39,14.39,0,0,0-2.62-.23,0.54,0.54,0,0,1-.62-0.46c0-.46.39-0.62,1.23-0.62,1.77,0,3.85,0,5.55.08l3.16,0.15c0.54,0,21.56,0,23.34-.08a20.58,20.58,0,0,0,3.31-.39,6.06,6.06,0,0,1,1.08-.39c0.23,0,.31.31,0.31,0.69,0,0.54-.39,1.47-0.62,3.62-0.08.77-.23,4.16-0.39,5.09a0.9,0.9,0,0,1-.54.85c-0.46,0-.62-0.39-0.62-1a13,13,0,0,0-.46-3.59c-0.54-1.23-2.12-1.35-6.28-1.81-1.29-.15-14.58-0.23-15.43-0.23-0.31,0-.46.23-0.46,0.77v21.27c0,0.54.08,0.77,0.46,0.77,1,0,16.17,0,17.94-.15s2.93-.31,3.62-1.08a2.35,2.35,0,0,1,1.16-1c0.23,0,.39.15,0.39,0.62s-0.39,1.77-.62,4.32c-0.15,1.54-.31,4.39-0.31,4.93s0,1.47-.54,1.47a0.58,0.58,0,0,1-.54-0.69,7.87,7.87,0,0,0-.31-2.54c-0.31-1.08-1.81-2.39-4.82-2.7-2.08-.23-14.58-0.39-15.89-0.39a0.49,0.49,0,0,0-.54.54V151c0,2.62-.08,11.56,0,13.18,0.23,5.32,1.39,6.32,8.94,6.32,2,0,11.08,0,13.08-.85s2.93-2.39,3.47-5.55c0.15-.85.31-1.16,0.69-1.16s0.46,0.62.46,1.16a75.42,75.42,0,0,1-1,7.48c-0.54,2-1.16,2-4.16,2-5.78,0-15.7-.15-18.71-0.23s-4.86-.23-6-0.23c-0.15,0-1.46,0-3.08.08s-3.31.15-4.47,0.15c-0.85,0-1.23-.15-1.23-0.62a0.5,0.5,0,0,1,.62-0.46,11.93,11.93,0,0,0,2.31-.31c1.54-.31,1.93-2,2.24-4.24,0.39-3.24.39-9.33,0.39-16.73V137.46Z" transform="translate(-75.4 -78.81)" style="fill:#fff"/><path d="M466.51,137.46c0-12,0-14.18-.15-16.65-0.15-2.62-.77-3.85-3.31-4.39a14.39,14.39,0,0,0-2.62-.23,0.54,0.54,0,0,1-.62-0.46c0-.46.39-0.62,1.23-0.62,1.77,0,3.85,0,5.55.08l3.16,0.15c0.54,0,21.56,0,23.34-.08a20.58,20.58,0,0,0,3.31-.39,6.06,6.06,0,0,1,1.08-.39c0.23,0,.31.31,0.31,0.69,0,0.54-.39,1.47-0.62,3.62-0.08.77-.23,4.16-0.39,5.09a0.9,0.9,0,0,1-.54.85c-0.46,0-.62-0.39-0.62-1a8.27,8.27,0,0,0-.46-2.77c-0.54-1.23-2.12-2.16-6.28-2.62-1.31-.15-14.58-0.23-15.43-0.23-0.31,0-.46.23-0.46,0.77v21.27c0,0.54.08,0.77,0.46,0.77,1,0,16.17,0,17.94-.15s2.93-.31,3.62-1.08a2.35,2.35,0,0,1,1.16-1c0.23,0,.39.15,0.39,0.62s-0.39,1.77-.62,4.32c-0.15,1.54-.31,4.39-0.31,4.93s0,1.47-.54,1.47a0.58,0.58,0,0,1-.54-0.69,7.87,7.87,0,0,0-.31-2.54c-0.31-1.08-1.81-2.39-4.82-2.7-2.08-.23-14.58-0.39-15.89-0.39a0.49,0.49,0,0,0-.54.54V151c0,2.62-.08,11.56,0,13.18,0.23,5.32,1.39,6.32,8.94,6.32,2,0,11.08,0,13.08-.85s2.93-2.39,3.47-5.55c0.15-.85.31-1.16,0.69-1.16s0.46,0.62.46,1.16a75.42,75.42,0,0,1-1,7.48c-0.54,2-1.16,2-4.16,2-5.78,0-15.7-.15-18.71-0.23s-4.86-.23-6-0.23c-0.15,0-1.46,0-3.08.08s-3.31.15-4.47,0.15c-0.85,0-1.23-.15-1.23-0.62a0.5,0.5,0,0,1,.62-0.46,11.93,11.93,0,0,0,2.31-.31c1.54-.31,1.93-2,2.24-4.24,0.39-3.24.39-9.33,0.39-16.73V137.46Z" transform="translate(-75.4 -78.81)" style="fill:#fff"/><path d="M177,162.9c0.15,6.32.93,8.32,3,8.94a16.88,16.88,0,0,0,3.85.46,0.5,0.5,0,0,1,.62.46c0,0.46-.46.62-1.39,0.62-4.39,0-7.48-.23-8.17-0.23s-3.93.23-7.4,0.23c-0.77,0-1.23-.08-1.23-0.62a0.5,0.5,0,0,1,.62-0.46,11,11,0,0,0,3.16-.46c1.93-.54,2.31-2.77,2.31-9.79l0.08-44.17c0-3,.23-3.85.85-3.85s1.93,1.7,2.7,2.47c1.16,1.31,12.64,13.72,24.51,26.44,7.63,8.17,16,17.57,18.5,20.12l-0.85-39.16c-0.08-5-.62-6.71-3-7.32a20.5,20.5,0,0,0-3.78-.39c-0.54,0-.62-0.23-0.62-0.54,0-.46.62-0.54,1.54-0.54,3.47,0,7.17.23,8,.23s3.39-.23,6.55-0.23c0.85,0,1.39.08,1.39,0.54a0.7,0.7,0,0,1-.85.54,6.79,6.79,0,0,0-1.85.23c-2.54.54-2.85,2.24-2.85,6.86l-0.15,45.17c0,5.09-.15,5.47-0.69,5.47s-1.54-.85-5.63-4.93c-0.85-.77-11.95-12.1-20.12-20.89-8.94-9.64-17.65-19.35-20.12-22.12Z" transform="translate(-75.4 -78.81)" style="fill:#fff"/><path d="M255.68,151c0,7.4,0,13.49.39,16.73,0.23,2.24.69,3.93,3,4.24a33.74,33.74,0,0,0,3.47.31,0.5,0.5,0,0,1,.62.46c0,0.39-.39.62-1.23,0.62-4.24,0-9.1-.23-9.48-0.23s-5.24.23-7.55,0.23c-0.85,0-1.23-.15-1.23-0.62a0.5,0.5,0,0,1,.62-0.46,11.94,11.94,0,0,0,2.31-.31c1.54-.31,1.93-2,2.24-4.24,0.39-3.24.39-9.33,0.39-16.73V118.42l-11.41.15c-4.78.08-6.63,0.62-7.86,2.47a13.58,13.58,0,0,0-1.31,2.39,0.85,0.85,0,0,1-.77.77c-0.23,0-.39-0.23-0.39-0.69,0-.77,1.54-7.4,1.7-8,0.15-.46.46-1.47,0.77-1.47,0.54,0,1.31.77,3.39,0.93,2.24,0.23,5.16.39,6.09,0.39h28.91a30.88,30.88,0,0,0,5.47-.39c1.16-.15,1.85-0.39,2.16-0.39s0.39,0.46.39,0.93c0,2.31-.23,7.63-0.23,8.48,0,0.69-.23,1-0.54,1s-0.54-.23-0.62-1.31l-0.08-.85c-0.23-2.31-2.08-4.09-9.48-4.24l-9.71-.15V151Z" transform="translate(-75.4 -78.81)" style="fill:#fff"/><path d="M296.86,172.32c-1.27-.55-1.36-0.87-1.36-3,0-4,.36-7.13.45-8.39,0.09-.87.27-1.27,0.73-1.27s0.64,0.24.64,0.87a12.2,12.2,0,0,0,.27,2.93c1.36,5.86,7.35,8.08,13.43,8.08,8.71,0,13-5.46,13-10.53,0-5.46-2.63-9.44-10.44-15.06L309.48,143c-9.62-6.89-11.8-11-11.8-16.37,0-8.47,7.26-14.25,18.79-14.25a40.13,40.13,0,0,1,8.44.79,5.54,5.54,0,0,0,2.24.1c0.73,0,.91.16,0.91,0.55s0.89,3.51,1.77,8.69c0.21,1.25-.18,1.82-0.64,1.82s-0.64-.4-0.73-1c-0.09-.95-1.84-3.4-2.38-4.27s-3-3.88-11.35-3.88c-6.26,0-11.16,3.4-11.16,9.18,0,4.51,2.36,6.55,11.07,12.49l2.54,1.74c10.71,7.36,13.25,13.08,13.25,19.42a15.74,15.74,0,0,1-7.72,13.14c-3.9,2.37-8.8,3.33-13.71,3.33A31,31,0,0,1,296.86,172.32Z" transform="translate(-75.4 -78.81)" style="fill:#fff"/><path d="M356,151c0,7.4,0,13.49.38,16.73,0.23,2.24.68,3.93,3,4.24a32.64,32.64,0,0,0,3.41.31,0.5,0.5,0,0,1,.61.46c0,0.39-.38.62-1.21,0.62-4.17,0-8.95-.23-9.32-0.23s-5.15.23-7.43,0.23c-0.83,0-1.21-.15-1.21-0.62a0.49,0.49,0,0,1,.61-0.46A11.56,11.56,0,0,0,347,172c1.52-.31,1.89-2,2.2-4.24,0.38-3.24.38-9.33,0.38-16.73V118.42l-11.22.15c-4.7.08-6.08,0.62-7.29,2.47a13.65,13.65,0,0,0-1.29,2.39,0.85,0.85,0,0,1-.76.77c-0.23,0-.38-0.23-0.38-0.69,0-.77,1.52-7.4,1.67-8,0.15-.46.46-1.47,0.76-1.47,0.53,0,1.29.77,3.33,0.93,2.2,0.23,4.64.39,5.55,0.39h28.43a29.88,29.88,0,0,0,5.38-.39c1.14-.15,1.82-0.39,2.12-0.39s0.38,0.46.38,0.93c0,2.31-.23,7.63-0.23,8.48,0,0.69-.23,1-0.53,1s-0.53-.23-0.61-1.31l-0.08-.85c-0.23-2.31-2-4.09-9.32-4.24l-9.55-.15V151Z" transform="translate(-75.4 -78.81)" style="fill:#fff"/><path d="M390.62,117c1.07-2.54,1.42-3,2-3s0.89,0.39,2,2.77c1.33,2.93,15.26,34.76,20.67,46.48,3.19,6.86,5.77,8.09,7.63,8.56a13.05,13.05,0,0,0,3.55.46c0.53,0,.89.08,0.89,0.46s-0.8.62-1.77,0.62c-1.33,0-7.81,0-13.93-.15-1.69-.08-2.66-0.08-2.66-0.54a0.63,0.63,0,0,1,.62-0.54c0.53-.15,1.07-0.85.53-2.08l-8.25-19a0.78,0.78,0,0,0-.8-0.46H381.93a0.92,0.92,0,0,0-.89.62l-5.32,13.64a14.46,14.46,0,0,0-1.24,5.16c0,1.54,1.86,2.24,3.37,2.24h0.89c0.62,0,.89.15,0.89,0.46,0,0.46-.53.62-1.33,0.62-2.13,0-5.94-.23-6.92-0.23s-5.85.23-10,.23c-1.15,0-1.69-.15-1.69-0.62,0-.31.35-0.46,0.8-0.46,0.62,0,1.86-.08,2.57-0.15,4.08-.46,5.85-3.39,7.45-7.25Zm9.23,30.83c0.44,0,.44-0.23.35-0.54l-8.43-20.81q-0.66-1.73-1.33,0l-7.81,20.81c-0.18.39,0,.54,0.27,0.54h16.94Z" transform="translate(-75.4 -78.81)" style="fill:#fff"/><path d="M437.66,151c0,7.4,0,13.49.39,16.73,0.23,2.24.69,3.93,3,4.24a33.74,33.74,0,0,0,3.47.31,0.5,0.5,0,0,1,.62.46c0,0.39-.39.62-1.23,0.62-4.24,0-9.1-.23-9.48-0.23s-5.24.23-7.55,0.23c-0.85,0-1.23-.15-1.23-0.62a0.5,0.5,0,0,1,.62-0.46,11.93,11.93,0,0,0,2.31-.31c1.54-.31,1.93-2,2.24-4.24,0.39-3.24.39-9.33,0.39-16.73V118.42l-11.41.15c-4.78.08-6.63,0.62-7.86,2.47a13.5,13.5,0,0,0-1.31,2.39,0.86,0.86,0,0,1-.77.77c-0.23,0-.39-0.23-0.39-0.69,0-.77,1.54-7.4,1.7-8,0.15-.46.46-1.47,0.77-1.47,0.54,0,1.31.77,3.39,0.93,2.24,0.23,5.16.39,6.09,0.39h28.9a30.88,30.88,0,0,0,5.47-.39c1.16-.15,1.85-0.39,2.16-0.39s0.39,0.46.39,0.93c0,2.31-.23,7.63-0.23,8.48,0,0.69-.23,1-0.54,1s-0.54-.23-0.62-1.31l-0.08-.85c-0.23-2.31-2.08-4.09-9.48-4.24l-9.71-.15V151Z" transform="translate(-75.4 -78.81)" style="fill:#fff"/><path d="M109.14,192.49c0-3.86,0-4.55,0-5.35a1.22,1.22,0,0,0-1.06-1.41,4.67,4.67,0,0,0-.84-0.07,0.17,0.17,0,0,1-.2-0.15c0-.15.12-0.2,0.4-0.2,1.11,0,2.62.07,2.85,0.07s1.71-.07,2.45-0.07c0.27,0,.4,0,0.4.2a0.17,0.17,0,0,1-.2.15,3.71,3.71,0,0,0-.62.07c-0.67.1-.87,0.55-0.92,1.41s0,1.48,0,5.35V196c0,3.56.79,5.1,1.86,6.11a4.84,4.84,0,0,0,3.74,1.36,5.2,5.2,0,0,0,3.89-1.78c1.14-1.41,1.44-3.51,1.44-6.06v-3.09c0-3.86,0-4.55,0-5.35a1.22,1.22,0,0,0-1.06-1.41,4.67,4.67,0,0,0-.84-0.07,0.17,0.17,0,0,1-.2-0.15c0-.15.12-0.2,0.4-0.2,1.11,0,2.47.07,2.62,0.07s1.34-.07,2.08-0.07c0.27,0,.4,0,0.4.2a0.17,0.17,0,0,1-.2.15,3.7,3.7,0,0,0-.62.07c-0.67.15-.87,0.55-0.92,1.41s0,1.48,0,5.35v2.65c0,2.67-.3,5.64-2.28,7.4a7.25,7.25,0,0,1-5.1,1.83,7.6,7.6,0,0,1-5.1-1.76c-1.21-1.16-2.15-2.9-2.15-6.51v-3.61Z" transform="translate(-75.4 -78.81)" style="fill:#fff"/><path d="M153.71,200.66c0,2,.3,2.67,1,2.87a5.44,5.44,0,0,0,1.24.15,0.16,0.16,0,0,1,.2.15c0,0.15-.15.2-0.45,0.2-1.41,0-2.4-.07-2.62-0.07s-1.26.07-2.38,0.07c-0.25,0-.4,0-0.4-0.2a0.16,0.16,0,0,1,.2-0.15,3.56,3.56,0,0,0,1-.15c0.62-.17.74-0.89,0.74-3.14l0-14.18c0-1,.07-1.24.27-1.24a3.05,3.05,0,0,1,.87.79c0.37,0.42,4.06,4.4,7.87,8.49,2.45,2.62,5.15,5.64,5.94,6.46l-0.27-12.57c0-1.61-.2-2.15-1-2.35a6.59,6.59,0,0,0-1.21-.12c-0.17,0-.2-0.07-0.2-0.17s0.2-.17.5-0.17c1.11,0,2.3.07,2.57,0.07s1.09-.07,2.1-0.07c0.27,0,.45,0,0.45.17a0.22,0.22,0,0,1-.27.17,2.2,2.2,0,0,0-.59.07c-0.82.17-.92,0.72-0.92,2.2l0,14.5c0,1.63,0,1.76-.22,1.76s-0.49-.27-1.81-1.58c-0.27-.25-3.84-3.88-6.46-6.71-2.87-3.09-5.67-6.21-6.46-7.1Z" transform="translate(-75.4 -78.81)" style="fill:#fff"/><path d="M200.43,196.85c0,2.38,0,4.33.12,5.37,0.07,0.72.22,1.26,1,1.36a10.69,10.69,0,0,0,1.11.1,0.16,0.16,0,0,1,.2.15c0,0.12-.12.2-0.4,0.2-1.36,0-2.92-.07-3-0.07S197.71,204,197,204c-0.27,0-.4,0-0.4-0.2a0.16,0.16,0,0,1,.2-0.15,3.8,3.8,0,0,0,.74-0.1c0.49-.1.62-0.64,0.72-1.36,0.12-1,.12-3,0.12-5.37v-4.36c0-3.86,0-4.55,0-5.35a1.23,1.23,0,0,0-.84-1.39,3.24,3.24,0,0,0-.77-0.1,0.17,0.17,0,0,1-.2-0.15c0-.15.12-0.2,0.4-0.2,0.82,0,2.38.07,2.5,0.07s1.68-.07,2.43-0.07c0.27,0,.4,0,0.4.2a0.17,0.17,0,0,1-.2.15,3.71,3.71,0,0,0-.62.07c-0.67.12-.87,0.55-0.92,1.41s0,1.48,0,5.35v4.36Z" transform="translate(-75.4 -78.81)" style="fill:#fff"/><path d="M236.61,201c1.44-3.32,4.75-12,5.3-13.74a3.55,3.55,0,0,0,.22-0.94,0.61,0.61,0,0,0-.32-0.57,3.12,3.12,0,0,0-.94-0.1c-0.15,0-.27,0-0.27-0.15s0.15-.2.54-0.2c1,0,2.13.07,2.43,0.07s1.21-.07,1.93-0.07c0.27,0,.42,0,0.42.17s-0.1.17-.3,0.17a2.24,2.24,0,0,0-1.19.3c-0.32.22-.69,0.64-1.36,2.33-0.27.69-1.51,3.66-2.77,6.71-1.51,3.61-2.62,6.29-3.19,7.5-0.69,1.48-.79,1.88-1,1.88s-0.42-.35-0.89-1.53l-6.06-15.17c-0.54-1.39-.92-1.66-1.78-1.91a3.84,3.84,0,0,0-.94-0.1,0.16,0.16,0,0,1-.2-0.17c0-.15.25-0.17,0.64-0.17,1.19,0,2.6.07,2.9,0.07s1.36-.07,2.3-0.07c0.45,0,.67,0,0.67.17s-0.07.17-.25,0.17a2.88,2.88,0,0,0-.94.12,0.5,0.5,0,0,0-.32.5,9.49,9.49,0,0,0,.67,2.05Z" transform="translate(-75.4 -78.81)" style="fill:#fff"/><path d="M271.48,192.49c0-3.86,0-4.55,0-5.35a1.22,1.22,0,0,0-1.06-1.41,4.66,4.66,0,0,0-.84-0.07,0.17,0.17,0,0,1-.2-0.15c0-.15.12-0.2,0.4-0.2,0.57,0,1.24,0,1.78,0l1,0c0.17,0,5.1,0,5.67,0a6.63,6.63,0,0,0,1.06-.12,2,2,0,0,1,.35-0.12c0.07,0,.1.1,0.1,0.22s-0.12.47-.2,1.16c0,0.25-.07,1.34-0.12,1.63a0.29,0.29,0,0,1-.17.27c-0.15,0-.2-0.12-0.2-0.32a2.66,2.66,0,0,0-.15-0.89c-0.17-.4-0.42-0.69-1.76-0.84-0.42,0-3.12-.07-3.39-0.07-0.1,0-.15.07-0.15,0.25v6.83c0,0.17,0,.25.15,0.25,0.32,0,3.37,0,3.93,0a1.66,1.66,0,0,0,1.16-.35,0.75,0.75,0,0,1,.37-0.32c0.07,0,.12,0,0.12.2s-0.12.57-.2,1.39c0,0.5-.1,1.41-0.1,1.58s0,0.47-.17.47a0.19,0.19,0,0,1-.17-0.22,2.53,2.53,0,0,0-.1-0.82,1.22,1.22,0,0,0-1.29-.87c-0.67-.07-3.12-0.12-3.54-0.12a0.16,0.16,0,0,0-.17.17v2.18c0,0.84,0,3.71,0,4.23,0.07,1.71.45,2,2.87,2a7.09,7.09,0,0,0,2.38-.27,2,2,0,0,0,1.11-1.78c0-.27.1-0.37,0.22-0.37s0.15,0.2.15,0.37a24.15,24.15,0,0,1-.32,2.4c-0.17.64-.37,0.64-1.34,0.64-1.86,0-3.22,0-4.18-.07s-1.56-.07-1.93-0.07c0,0-.47,0-1,0s-1.06,0-1.44,0-0.4,0-.4-0.2a0.16,0.16,0,0,1,.2-0.15,3.79,3.79,0,0,0,.74-0.1c0.49-.1.62-0.64,0.72-1.36,0.12-1,.12-3,0.12-5.37v-4.36Z" transform="translate(-75.4 -78.81)" style="fill:#fff"/><path d="M308.55,192.49c0-3.86,0-4.55,0-5.35a1.22,1.22,0,0,0-1.06-1.41,4.66,4.66,0,0,0-.84-0.07,0.17,0.17,0,0,1-.2-0.15c0-.15.12-0.2,0.4-0.2,1.11,0,2.67.07,2.8,0.07s2.15-.07,2.92-0.07a7.62,7.62,0,0,1,4.53,1.09,4.33,4.33,0,0,1,1.71,3.37c0,1.83-.77,3.66-3,5.72,2,2.6,3.71,4.8,5.15,6.34a5.12,5.12,0,0,0,3,1.78,6,6,0,0,0,1,.07,0.2,0.2,0,0,1,.22.15c0,0.15-.15.2-0.59,0.2h-1.76a5,5,0,0,1-2.65-.47c-1.06-.57-1.93-1.78-3.34-3.64-1-1.36-2.2-3-2.7-3.66a0.4,0.4,0,0,0-.32-0.15l-3,0a0.16,0.16,0,0,0-.17.2v0.59c0,2.38,0,4.33.12,5.37,0.07,0.72.22,1.26,1,1.36a10.67,10.67,0,0,0,1.11.1,0.16,0.16,0,0,1,.2.15c0,0.12-.12.2-0.4,0.2-1.36,0-2.92-.07-3-0.07s-1.58.07-2.33,0.07c-0.27,0-.4,0-0.4-0.2a0.16,0.16,0,0,1,.2-0.15,3.79,3.79,0,0,0,.74-0.1c0.5-.1.62-0.64,0.72-1.36,0.12-1,.12-3,0.12-5.37v-4.36Zm2,2.15a0.32,0.32,0,0,0,.17.3,6.83,6.83,0,0,0,2.6.4,3.2,3.2,0,0,0,1.86-.47,4.52,4.52,0,0,0,1.51-3.81c0-3.09-1.63-4.95-4.28-4.95a7.5,7.5,0,0,0-1.66.15,0.3,0.3,0,0,0-.2.3v8.09Z" transform="translate(-75.4 -78.81)" style="fill:#fff"/><path d="M347.53,203.71c-0.35-.17-0.37-0.27-0.37-0.94,0-1.24.1-2.23,0.12-2.62s0.07-.4.2-0.4,0.17,0.07.17,0.27a4.34,4.34,0,0,0,.07.92c0.37,1.83,2,2.52,3.66,2.52a3.3,3.3,0,0,0,3.54-3.29c0-1.71-.72-2.7-2.85-4.45L351,194.8c-2.62-2.15-3.22-3.69-3.22-5.37,0-2.65,2-4.45,5.12-4.45a9.57,9.57,0,0,1,2.3.25,4,4,0,0,0,.87.12c0.2,0,.25,0,0.25.17s-0.1.94-.1,2.62c0,0.4,0,.57-0.17.57s-0.17-.12-0.2-0.32a4.32,4.32,0,0,0-.32-1.24c-0.15-.27-0.82-1.31-3.09-1.31a2.81,2.81,0,0,0-3,2.87c0,1.41.64,2.3,3,4.16l0.69,0.54c2.92,2.3,3.61,3.84,3.61,5.82a5.13,5.13,0,0,1-2.1,4.11,6.51,6.51,0,0,1-3.74,1A7.51,7.51,0,0,1,347.53,203.71Z" transform="translate(-75.4 -78.81)" style="fill:#fff"/><path d="M387.27,196.85c0,2.38,0,4.33.12,5.37,0.07,0.72.22,1.26,1,1.36a10.68,10.68,0,0,0,1.11.1,0.16,0.16,0,0,1,.2.15c0,0.12-.12.2-0.4,0.2-1.36,0-2.92-.07-3-0.07s-1.68.07-2.43,0.07c-0.27,0-.4,0-0.4-0.2a0.16,0.16,0,0,1,.2-0.15,3.79,3.79,0,0,0,.74-0.1c0.49-.1.62-0.64,0.72-1.36,0.12-1,.12-3,0.12-5.37v-4.36c0-3.86,0-4.55,0-5.35a1.23,1.23,0,0,0-.84-1.39,3.23,3.23,0,0,0-.77-0.1,0.17,0.17,0,0,1-.2-0.15c0-.15.12-0.2,0.4-0.2,0.82,0,2.38.07,2.5,0.07s1.68-.07,2.43-0.07c0.27,0,.4,0,0.4.2a0.17,0.17,0,0,1-.2.15,3.7,3.7,0,0,0-.62.07c-0.67.12-.87,0.55-0.92,1.41s0,1.48,0,5.35v4.36Z" transform="translate(-75.4 -78.81)" style="fill:#fff"/><path d="M423.28,196.85c0,2.38,0,4.33.12,5.37,0.07,0.72.22,1.26,1,1.36a10.68,10.68,0,0,0,1.11.1,0.16,0.16,0,0,1,.2.15c0,0.12-.12.2-0.4,0.2-1.36,0-2.92-.07-3-0.07s-1.68.07-2.43,0.07c-0.27,0-.4,0-0.4-0.2a0.16,0.16,0,0,1,.2-0.15,3.79,3.79,0,0,0,.74-0.1c0.5-.1.62-0.64,0.72-1.36,0.12-1,.12-3,0.12-5.37V186.38l-3.66,0c-1.53,0-2.13.2-2.52,0.79a4.39,4.39,0,0,0-.42.77,0.27,0.27,0,0,1-.25.25c-0.07,0-.12-0.07-0.12-0.22s0.5-2.38.54-2.57A0.83,0.83,0,0,1,415,185a4.6,4.6,0,0,0,1.09.3c0.72,0.07,1.66.12,2,.12h9.28a9.87,9.87,0,0,0,1.76-.12c0.37,0,.59-0.12.69-0.12s0.12,0.15.12,0.3c0,0.74-.07,2.45-0.07,2.72s-0.07.32-.17,0.32-0.17-.07-0.2-0.42l0-.27c-0.07-.74-0.67-1.31-3-1.36l-3.12,0v10.47Z" transform="translate(-75.4 -78.81)" style="fill:#fff"/><path d="M459.78,197.62a5.25,5.25,0,0,0-.57-2.6c-0.17-.4-3.49-5.84-4.36-7.13a6.92,6.92,0,0,0-1.68-1.83,2.36,2.36,0,0,0-1.06-.4,0.21,0.21,0,0,1-.25-0.17c0-.1.1-0.17,0.32-0.17,0.47,0,2.33.07,2.45,0.07s1.11-.07,2.08-0.07c0.27,0,.32.07,0.32,0.17a0.51,0.51,0,0,1-.37.22,0.5,0.5,0,0,0-.32.45,2.11,2.11,0,0,0,.32,1c0.4,0.72,4.11,7.1,4.55,7.82,0.47-1,3.61-6.46,4.11-7.28a2.42,2.42,0,0,0,.42-1.26,0.61,0.61,0,0,0-.4-0.69,0.41,0.41,0,0,1-.37-0.25c0-.1.15-0.15,0.4-0.15,0.64,0,1.43.07,1.63,0.07s1.93-.07,2.4-0.07c0.17,0,.32,0,0.32.15s-0.12.2-.32,0.2a2.36,2.36,0,0,0-1.14.35,4.71,4.71,0,0,0-1.31,1.26,78.67,78.67,0,0,0-4.73,7.87,5.91,5.91,0,0,0-.37,2.47v2.13c0,0.4,0,1.44.07,2.48a1.21,1.21,0,0,0,1,1.36,10.67,10.67,0,0,0,1.11.1,0.16,0.16,0,0,1,.2.15c0,0.12-.12.2-0.4,0.2-1.36,0-2.92-.07-3-0.07s-1.68.07-2.43,0.07c-0.27,0-.4,0-0.4-0.2a0.16,0.16,0,0,1,.2-0.15,3.79,3.79,0,0,0,.74-0.1,1.28,1.28,0,0,0,.77-1.36c0.07-1,.07-2.08.07-2.48v-2.13Z" transform="translate(-75.4 -78.81)" style="fill:#fff"/><path d="M300.14,105.24a4.58,4.58,0,0,1,2.67-.92,5.9,5.9,0,0,0,4.87-3.3c0.21-.46.35-0.93,0.61-1.38a4.12,4.12,0,0,1,3.14-2.31c1.12-.12,1.95.19,2.9-0.22s0.94-.48.94-0.48a5.84,5.84,0,0,1-1.49.23c-0.81.07-2-.24-2.79-0.21a5.53,5.53,0,0,0-3.26,1.18c-0.92.85-1.8,2.21-2.72,2.58a6,6,0,0,1-2.54.54,13.93,13.93,0,0,1-1.56-.28,7,7,0,0,0-2.71.09l10.54-13.53L294.65,97.35a4.23,4.23,0,0,1,.43-1.51c0.4-.88,1.64-1.77,2.07-3.28a5,5,0,0,0-.37-3.49,5.47,5.47,0,0,1-.43-3.13,4.79,4.79,0,0,1,1.24-2.33,3.69,3.69,0,0,0,1.24-2l0.15-.61a3.06,3.06,0,0,1-.68,1.07c-0.67.81-1.09,0.64-1.94,1.43a5.67,5.67,0,0,0-1.73,2.88c-0.26,1.5.22,1.83,0.11,3.19a4,4,0,0,1-1,2.48,6.58,6.58,0,0,1-1.93,1.46,3.76,3.76,0,0,0-1.73,1.93l-2.62-16.68L285,95.5a3.47,3.47,0,0,1-.89-1.88c-0.1-.72-0.15-2.64-1.28-3.81A7,7,0,0,0,279.72,88a5.18,5.18,0,0,1-2.45-2.41,17.19,17.19,0,0,1-.51-3.16A4.17,4.17,0,0,0,276,81a4.62,4.62,0,0,1,.31,1.65c0,0.81-.39,2.14-0.34,2.82a4,4,0,0,0,1.42,2.92c1.26,1.16,1.77,1,2.55,2.55a3.54,3.54,0,0,1,.37,3.15,4.89,4.89,0,0,0-.22,2.29c0.14,0.62.18,1,.18,1L266.2,87.24l10.44,13.52a3.61,3.61,0,0,1-2.12-.61,6.5,6.5,0,0,0-2.85-1.64,4.66,4.66,0,0,0-2.7.08,11.38,11.38,0,0,1-2.34.61,5.36,5.36,0,0,1-3.69-.81,8.14,8.14,0,0,0-2.16-1.54,6.11,6.11,0,0,0-1.1-.26,4.65,4.65,0,0,1,1.73,1.19c0.76,0.87.95,1.67,2,2.28a5.56,5.56,0,0,0,3.13.81,11,11,0,0,1,2.4-.15,4.35,4.35,0,0,1,2.64,1.22c0.93,1.15,1.42,2.11,1.88,2.53a3.87,3.87,0,0,0,1.29.78l-17.35,2.89s24.39-1.05,30-1.05,30.38,1.12,30.44,1.13Z" transform="translate(-75.4 -78.81)" style="fill:#eeb310"/><path d="M502.9,168.43a2.61,2.61,0,1,1-2.61,2.62A2.57,2.57,0,0,1,502.9,168.43Zm0,5a2.37,2.37,0,1,0-2.35-2.36A2.31,2.31,0,0,0,502.91,173.41Zm0.66-.88a0.79,0.79,0,0,1-.15-0.34l-0.09-.38a0.58,0.58,0,0,0-.64-0.41h-0.24v1.13h-0.63v-3.08H503a1,1,0,0,1,1.13,1,0.78,0.78,0,0,1-.85.79,0.69,0.69,0,0,1,.66.49l0.12,0.46a1.06,1.06,0,0,0,.19.38h-0.7Zm-1.13-1.62h0.41c0.51,0,.67-0.17.67-0.46a0.49,0.49,0,0,0-.59-0.48h-0.49v0.94Z" transform="translate(-75.4 -78.81)" style="fill:#fff"/></svg>
