<?xml version="1.0" encoding="UTF-8" standalone="no"?>
<svg width="1620px" height="962px" style="opacity: .05" viewBox="0 0 1620 962" version="1.1" xmlns="http://www.w3.org/2000/svg" xmlns:xlink="http://www.w3.org/1999/xlink">
    <!-- Generator: Sketch 39.1 (31720) - http://www.bohemiancoding.com/sketch -->
    <title>Page 1</title>
    <desc>Created with Sketch.</desc>
    <defs></defs>
    <g id="Page-1" stroke="none" stroke-width="1" fill="none" fill-rule="evenodd">
        <g transform="translate(0.000000, -1.000000)" fill="#FEFEFE">
            <g id="Group-15" transform="translate(0.000000, 726.020000)">
                <polygon id="Fill-1" points="1378.967 10.395 1462.819 10.395 1462.819 6.163 1378.967 6.163"></polygon>
                <polygon id="Fill-3" points="895.639 143.157 1132.027 143.157 1132.027 138.925 895.639 138.925"></polygon>
                <polygon id="Fill-4" points="482.031 143.157 884.962 143.157 884.962 138.925 482.031 138.925"></polygon>
                <polygon id="Fill-5" points="0 143.157 471.218 143.157 471.218 138.925 0 138.925"></polygon>
                <polygon id="Fill-6" points="1474.001 10.395 1620 10.395 1620 6.163 1474.001 6.163"></polygon>
                <polygon id="Fill-7" points="1334.0869 52.2793 1332.2979 48.4433 1142.7029 136.8533 1144.4919 140.6893"></polygon>
                <polygon id="Fill-8" points="1338.8389 41.6674 1341.8319 44.6604 1373.1039 13.3874 1370.1109 10.3954"></polygon>
                <path d="M1467.2893,15.8176 C1471.4533,15.8176 1474.8283,12.4426 1474.8283,8.2786 C1474.8283,4.1156 1471.4533,0.7396 1467.2893,0.7396 C1463.1253,0.7396 1459.7503,4.1156 1459.7503,8.2786 C1459.7503,12.4426 1463.1253,15.8176 1467.2893,15.8176 M1463.1263,8.2786 C1463.1263,5.9796 1464.9903,4.1166 1467.2893,4.1166 C1469.5883,4.1166 1471.4523,5.9796 1471.4523,8.2786 C1471.4523,10.5776 1469.5883,12.4416 1467.2893,12.4416 C1464.9903,12.4416 1463.1263,10.5776 1463.1263,8.2786" id="Fill-9"></path>
                <path d="M1374.7839,15.8176 C1378.9479,15.8176 1382.3229,12.4426 1382.3229,8.2786 C1382.3229,4.1156 1378.9479,0.7396 1374.7839,0.7396 C1370.6199,0.7396 1367.2449,4.1156 1367.2449,8.2786 C1367.2449,12.4426 1370.6199,15.8176 1374.7839,15.8176 M1370.6209,8.2786 C1370.6209,5.9796 1372.4849,4.1166 1374.7839,4.1166 C1377.0829,4.1166 1378.9469,5.9796 1378.9469,8.2786 C1378.9469,10.5776 1377.0829,12.4416 1374.7839,12.4416 C1372.4849,12.4416 1370.6209,10.5776 1370.6209,8.2786" id="Fill-10"></path>
                <path d="M1337.1661,54.2575 C1341.3301,54.2575 1344.7051,50.8825 1344.7051,46.7185 C1344.7051,42.5555 1341.3301,39.1795 1337.1661,39.1795 C1333.0021,39.1795 1329.6271,42.5555 1329.6271,46.7185 C1329.6271,50.8825 1333.0021,54.2575 1337.1661,54.2575 M1333.0031,46.7185 C1333.0031,44.4195 1334.8671,42.5565 1337.1661,42.5565 C1339.4651,42.5565 1341.3291,44.4195 1341.3291,46.7185 C1341.3291,49.0175 1339.4651,50.8815 1337.1661,50.8815 C1334.8671,50.8815 1333.0031,49.0175 1333.0031,46.7185" id="Fill-11"></path>
                <path d="M1138.8842,148.58 C1143.0482,148.58 1146.4232,145.205 1146.4232,141.041 C1146.4232,136.878 1143.0482,133.502 1138.8842,133.502 C1134.7202,133.502 1131.3452,136.878 1131.3452,141.041 C1131.3452,145.205 1134.7202,148.58 1138.8842,148.58 M1134.7212,141.041 C1134.7212,138.742 1136.5852,136.879 1138.8842,136.879 C1141.1832,136.879 1143.0472,138.742 1143.0472,141.041 C1143.0472,143.34 1141.1832,145.204 1138.8842,145.204 C1136.5852,145.204 1134.7212,143.34 1134.7212,141.041" id="Fill-12"></path>
                <path d="M890.8254,148.58 C894.9894,148.58 898.3644,145.205 898.3644,141.041 C898.3644,136.878 894.9894,133.502 890.8254,133.502 C886.6614,133.502 883.2864,136.878 883.2864,141.041 C883.2864,145.205 886.6614,148.58 890.8254,148.58 M886.6624,141.041 C886.6624,138.742 888.5264,136.879 890.8254,136.879 C893.1244,136.879 894.9884,138.742 894.9884,141.041 C894.9884,143.34 893.1244,145.204 890.8254,145.204 C888.5264,145.204 886.6624,143.34 886.6624,141.041" id="Fill-13"></path>
                <path d="M477.0821,148.58 C481.2461,148.58 484.6211,145.205 484.6211,141.041 C484.6211,136.878 481.2461,133.502 477.0821,133.502 C472.9181,133.502 469.5431,136.878 469.5431,141.041 C469.5431,145.205 472.9181,148.58 477.0821,148.58 M472.9191,141.041 C472.9191,138.742 474.7831,136.879 477.0821,136.879 C479.3811,136.879 481.2451,138.742 481.2451,141.041 C481.2451,143.34 479.3811,145.204 477.0821,145.204 C474.7831,145.204 472.9191,143.34 472.9191,141.041" id="Fill-14"></path>
            </g>
            <g id="Group-30" transform="translate(1492.000000, 0.020000)">
                <polygon id="Fill-16" points="110.056 919.917 113.41 919.917 113.41 853.473 110.056 853.473"></polygon>
                <polygon id="Fill-18" points="4.856 657.8 8.21 657.8 8.21 470.488 4.856 470.488"></polygon>
                <polygon id="Fill-19" points="4.856 462.028 8.21 462.028 8.21 142.748 4.856 142.748"></polygon>
                <polygon id="Fill-20" points="4.856 134.18 8.21 134.18 8.21 0.98 4.856 0.98"></polygon>
                <polygon id="Fill-21" points="110.056 962 113.41 962 113.41 928.778 110.056 928.778"></polygon>
                <polygon id="Fill-22" points="76.8679 817.9109 79.9079 816.4939 9.8519 666.2599 6.8129 667.6769"></polygon>
                <polygon id="Fill-23" points="85.2769 821.6763 82.9059 824.0473 107.6859 848.8273 110.0569 846.4563"></polygon>
                <path d="M105.76,923.4596 C105.76,926.7586 108.435,929.4336 111.734,929.4336 C115.033,929.4336 117.707,926.7586 117.707,923.4596 C117.707,920.1606 115.033,917.4856 111.734,917.4856 C108.435,917.4856 105.76,920.1606 105.76,923.4596 M111.734,920.1606 C113.555,920.1606 115.032,921.6376 115.032,923.4596 C115.032,925.2816 113.555,926.7586 111.734,926.7586 C109.912,926.7586 108.435,925.2816 108.435,923.4596 C108.435,921.6376 109.912,920.1606 111.734,920.1606" id="Fill-24"></path>
                <path d="M105.76,850.159 C105.76,853.458 108.435,856.133 111.734,856.133 C115.033,856.133 117.707,853.458 117.707,850.159 C117.707,846.86 115.033,844.185 111.734,844.185 C108.435,844.185 105.76,846.86 105.76,850.159 M111.734,846.86 C113.555,846.86 115.032,848.337 115.032,850.159 C115.032,851.981 113.555,853.458 111.734,853.458 C109.912,853.458 108.435,851.981 108.435,850.159 C108.435,848.337 109.912,846.86 111.734,846.86" id="Fill-25"></path>
                <path d="M75.3005,820.351 C75.3005,823.65 77.9755,826.325 81.2745,826.325 C84.5735,826.325 87.2475,823.65 87.2475,820.351 C87.2475,817.052 84.5735,814.377 81.2745,814.377 C77.9755,814.377 75.3005,817.052 75.3005,820.351 M81.2745,817.052 C83.0955,817.052 84.5725,818.529 84.5725,820.351 C84.5725,822.173 83.0955,823.65 81.2745,823.65 C79.4525,823.65 77.9755,822.173 77.9755,820.351 C77.9755,818.529 79.4525,817.052 81.2745,817.052" id="Fill-26"></path>
                <path d="M0.5601,663.2336 C0.5601,666.5326 3.2351,669.2076 6.5341,669.2076 C9.8331,669.2076 12.5071,666.5326 12.5071,663.2336 C12.5071,659.9346 9.8331,657.2596 6.5341,657.2596 C3.2351,657.2596 0.5601,659.9346 0.5601,663.2336 M6.5341,659.9356 C8.3551,659.9356 9.8321,661.4116 9.8321,663.2336 C9.8321,665.0556 8.3551,666.5326 6.5341,666.5326 C4.7121,666.5326 3.2351,665.0556 3.2351,663.2336 C3.2351,661.4116 4.7121,659.9356 6.5341,659.9356" id="Fill-27"></path>
                <path d="M0.5601,466.6737 C0.5601,469.9727 3.2351,472.6477 6.5341,472.6477 C9.8331,472.6477 12.5071,469.9727 12.5071,466.6737 C12.5071,463.3747 9.8331,460.6997 6.5341,460.6997 C3.2351,460.6997 0.5601,463.3747 0.5601,466.6737 M6.5341,463.3747 C8.3551,463.3747 9.8321,464.8517 9.8321,466.6737 C9.8321,468.4957 8.3551,469.9717 6.5341,469.9717 C4.7121,469.9717 3.2351,468.4957 3.2351,466.6737 C3.2351,464.8517 4.7121,463.3747 6.5341,463.3747" id="Fill-28"></path>
                <path d="M0.5601,138.8263 C0.5601,142.1253 3.2351,144.8003 6.5341,144.8003 C9.8331,144.8003 12.5071,142.1253 12.5071,138.8263 C12.5071,135.5273 9.8331,132.8523 6.5341,132.8523 C3.2351,132.8523 0.5601,135.5273 0.5601,138.8263 M6.5341,135.5273 C8.3551,135.5273 9.8321,137.0043 9.8321,138.8263 C9.8321,140.6483 8.3551,142.1243 6.5341,142.1243 C4.7121,142.1243 3.2351,140.6483 3.2351,138.8263 C3.2351,137.0043 4.7121,135.5273 6.5341,135.5273" id="Fill-29"></path>
            </g>
        </g>
    </g>
</svg>
