<svg id="Layer_1" data-name="Layer 1" xmlns="http://www.w3.org/2000/svg" viewBox="0 0 32 32"><title>youtube</title><g id="Flat_copy" data-name="Flat copy"><path d="M16,0A16,16,0,1,0,32,16,16,16,0,0,0,16,0Z" style="fill:#3583b8"/><path d="M16,15.2s6.33,0,7.08.76,0.76,4.46.76,4.48,0,3.73-.76,4.48S16,25.7,16,25.7s-6.33,0-7.08-.77-0.76-4.46-.76-4.48,0-3.73.76-4.48S16,15.2,16,15.2Z" style="fill:#fff"/><path d="M22.49,21.33V20.14a1.41,1.41,0,0,0-.34-1,1.27,1.27,0,0,0-1-.35,1.37,1.37,0,0,0-1,.38,1.33,1.33,0,0,0-.39,1v2.09a1.5,1.5,0,0,0,.35,1.06,1.25,1.25,0,0,0,1,.38,1.35,1.35,0,0,0,1-.36,1.51,1.51,0,0,0,.34-1.08V22H21.55V22.2a1,1,0,0,1-.09.53,0.37,0.37,0,0,1-.32.12,0.34,0.34,0,0,1-.31-0.14,1,1,0,0,1-.09-0.51V21.33h1.75Zm-1.75-.73V20.13a0.7,0.7,0,0,1,.09-0.42,0.36,0.36,0,0,1,.31-0.13,0.34,0.34,0,0,1,.3.13,0.69,0.69,0,0,1,.1.42V20.6H20.74Z" style="fill:#3583b8"/><path d="M19.09,19.13a0.79,0.79,0,0,0-.66-0.3,0.88,0.88,0,0,0-.42.11,1.41,1.41,0,0,0-.39.32v-2H16.69v6.31h0.92V23.18a1.17,1.17,0,0,0,.39.32,1.07,1.07,0,0,0,.48.1,0.75,0.75,0,0,0,.62-0.26,1.17,1.17,0,0,0,.22-0.76V20A1.4,1.4,0,0,0,19.09,19.13Zm-0.71,3.32a0.51,0.51,0,0,1-.08.32,0.29,0.29,0,0,1-.25.1,0.51,0.51,0,0,1-.22,0,0.78,0.78,0,0,1-.22-0.16v-2.9a0.66,0.66,0,0,1,.19-0.14,0.43,0.43,0,0,1,.19,0,0.35,0.35,0,0,1,.28.12,0.57,0.57,0,0,1,.1.36v2.4Z" style="fill:#3583b8"/><path d="M15.09,23.54V23a2,2,0,0,1-.53.43,1.1,1.1,0,0,1-.53.15,0.56,0.56,0,0,1-.48-0.21,1,1,0,0,1-.16-0.62V18.89H14.3v3.57a0.41,0.41,0,0,0,.06.24,0.23,0.23,0,0,0,.19.07,0.5,0.5,0,0,0,.26-0.1,1.3,1.3,0,0,0,.28-0.25V18.89H16v4.65H15.09Z" style="fill:#3583b8"/><polygon points="11.92 18.15 11.92 23.54 10.89 23.54 10.89 18.15 9.82 18.15 9.82 17.23 12.99 17.23 12.99 18.15 11.92 18.15" style="fill:#3583b8"/><path d="M21.15,13.25h-1V12.69a2.17,2.17,0,0,1-.59.48,1.27,1.27,0,0,1-.6.16,0.64,0.64,0,0,1-.54-0.23,1.1,1.1,0,0,1-.18-0.69V8.13h1v3.93a0.42,0.42,0,0,0,.07.26,0.25,0.25,0,0,0,.21.08,0.59,0.59,0,0,0,.29-0.11A1.37,1.37,0,0,0,20.12,12V8.13h1v5.12h0Z" style="fill:#fff"/><path d="M17,8.37a1.5,1.5,0,0,0-1-.37,1.67,1.67,0,0,0-1.12.35,1.17,1.17,0,0,0-.42.95V12a1.37,1.37,0,0,0,.4,1,1.51,1.51,0,0,0,1.08.39A1.56,1.56,0,0,0,17,13a1.35,1.35,0,0,0,.4-1V9.33A1.25,1.25,0,0,0,17,8.37Zm-0.64,3.68a0.43,0.43,0,0,1-.12.32,0.46,0.46,0,0,1-.33.12,0.41,0.41,0,0,1-.31-0.11,0.46,0.46,0,0,1-.11-0.33V9.26A0.35,0.35,0,0,1,15.56,9a0.45,0.45,0,0,1,.31-0.1,0.5,0.5,0,0,1,.33.1,0.34,0.34,0,0,1,.13.27v2.79Z" style="fill:#fff"/><polygon points="11.58 6.3 10.41 6.3 11.79 10.5 11.79 13.25 12.95 13.25 12.95 10.37 14.3 6.3 13.12 6.3 12.4 9.08 12.33 9.08 11.58 6.3" style="fill:#fff"/></g></svg>